<svg xmlns="http://www.w3.org/2000/svg" width="551" height="80" viewBox="0 0 551 80">
    <g fill="#ffffff" fill-rule="evenodd">
        <path d="M0 40C0 17.364 17.437 0 41.484 0c18.235 0 33.735 10.988 38.409 27.033.456 1.87-.572 3.078-2.509 3.078H63.937c-1.597 0-2.507-.77-3.192-2.199-3.191-6.703-10.599-10.77-19.261-10.77-14.13 0-23.25 9.122-23.25 22.859 0 13.735 9.12 22.857 23.25 22.857 8.662 0 16.07-4.066 19.26-10.77.686-1.427 1.596-2.196 3.193-2.196h13.447c1.937 0 2.965 1.097 2.509 2.855C75.447 68.793 59.833 80 41.484 80 17.437 80 0 62.638 0 40zM171.417 40c0-13.736-9.889-22.858-22.417-22.858-12.528 0-22.417 9.122-22.417 22.859 0 13.735 9.889 22.857 22.417 22.857 12.528 0 22.417-9.122 22.417-22.857zM109 40c0-22.637 17.91-40 40-40 22.088 0 40 17.363 40 40 0 22.638-17.912 40-40 40-22.09 0-40-17.362-40-40zM267.668 53.713c0-5.143-2.492-9.143-8.668-9.143h-21.666v18.288h21.558c6.284 0 8.776-4.003 8.776-9.145zm-30.334-36.571v11.43h18.417c1.408-1.374 2.168-3.316 2.168-5.145 0-3.771-2.385-6.285-5.96-6.285h-14.625zm35.126 14.912C280.095 36.494 285 44.73 285 54.857 285 69.26 274.817 80 261.058 80h-38.35c-1.733 0-2.708-1.029-2.708-2.857V2.857c0-1.828.975-2.857 2.708-2.857h29.251c13.326 0 23.292 9.37 23.292 22.286 0 3.495-1.035 6.876-2.791 9.768zM325.97 0h13.06c1.9 0 2.97 1.028 2.97 2.857V77.14c0 1.829-1.07 2.859-2.97 2.859h-13.06c-1.9 0-2.97-1.03-2.97-2.859V2.857C323 1.028 324.07 0 325.97 0zM404.765 37.715h11.53c4.61 0 8.382-4.457 8.382-10.285 0-5.83-3.772-10.287-8.382-10.287h-11.53v20.572zm42.546 38.746c1.365 1.825.631 3.539-1.572 3.539h-13.414c-1.36 0-2.407-.456-3.245-1.714l-17.854-24.57h-6.46v23.429c0 1.83-.94 2.855-2.619 2.855h-11.529c-1.676 0-2.618-1.025-2.618-2.855V2.857c0-1.828.942-2.857 2.618-2.857h25.677c13.936 0 25.15 12.228 25.15 27.43 0 9.592-5.225 18.334-12.97 22.918l18.836 26.11v.003zM533.418 40c0-13.736-9.89-22.858-22.417-22.858-12.528 0-22.419 9.122-22.419 22.859 0 13.735 9.891 22.857 22.419 22.857s22.417-9.122 22.417-22.857zM471 40c0-22.637 17.913-40 40-40s40 17.363 40 40c0 22.638-17.913 40-40 40s-40-17.362-40-40z"/>
    </g>
</svg>
